#!OML:ASF H:\Martial Arts Walks\Project 1\Capture day 1\Session 1\male.ASF
:FULLY-SPECIFIED
:DEGREES
4715
root -1.07844 13.6632 -31.9181 -709.519 -46.3917 -372.732
lowerback 16.8493 5.5787 2.29597
upperback -3.20293 8.15225 1.44719
thorax -12.9214 3.68701 -1.92252
lowerneck -2.96528 7.97365 1.35442
upperneck 5.73927 10.456 2.16799
head 2.26116 5.29157 0.752524
rclavicle 1.0953e-013 -1.19271e-015
rhumerus -56.5437 46.7107 -110.005
rradius 111.954
rwrist -82.9792
rhand 9.99052 -397.772
rfingers 7.12502
rthumb 35.1174 1735.7
lclavicle 1.0953e-013 -1.19271e-015
lhumerus -172.238 173.921 -92.4941
lradius 95.7329
lwrist -20.1016
lhand -40.5301 747.016
lfingers 7.12502
lthumb -13.4788 1496.56
rfemur -25.3386 -30.2956 16.4401
rtibia 82.0203
rfoot -30.0722 -15.5192
rtoes 28.7057
lfemur -64.794 36.6341 -8.24461
ltibia 77.6093
lfoot 1.15712 15.6366
ltoes 24.1554
4716
root -1.08399 13.6461 -31.925 -709.513 -46.4361 -372.639
lowerback 16.8037 5.5547 2.13462
upperback -3.21848 8.09162 1.49876
thorax -12.9455 3.67308 -1.75849
lowerneck -2.85202 8.02369 1.25435
upperneck 5.72643 10.5302 2.17228
head 2.23017 5.32609 0.765272
rclavicle -8.68937e-014 -2.74323e-014
rhumerus -56.6808 46.9185 -110.132
rradius 111.94
rwrist -82.9095
rhand 10.2061 -397.512
rfingers 7.12502
rthumb 35.3218 1736.01
lclavicle -8.68937e-014 -2.74323e-014
lhumerus -172.275 173.701 -92.5282
lradius 95.7934
lwrist -20.3553
lhand -40.535 746.962
lfingers 7.12502
lthumb -13.4835 1496.51
rfemur -25.5376 -30.49 16.3692
rtibia 82.3024
rfoot -30.2819 -15.3259
rtoes 28.8649
lfemur -64.9944 36.7125 -8.35233
ltibia 77.7306
lfoot 1.0455 15.6563
ltoes 24.0871
4717
root -1.08998 13.6282 -31.9334 -709.467 -46.4765 -372.592
lowerback 16.8012 5.60745 2.07273
upperback -3.23595 8.14519 1.4598
thorax -12.9654 3.7002 -1.78264
lowerneck -2.96444 7.98887 1.30028
upperneck 5.82867 10.4735 2.23904
head 2.28344 5.30156 0.786305
rclavicle 5.60076e-014 1.86858e-014
rhumerus -56.632 46.8315 -110.122
rradius 111.861
rwrist -82.6967
rhand 10.5211 -397.33
rfingers 7.12502
rthumb 35.6204 1736.26
lclavicle 5.60076e-014 1.86858e-014
lhumerus -172.214 173.798 -92.5546
lradius 95.7999
lwrist -20.4947
lhand -40.6232 747.023
lfingers 7.12502
lthumb -13.5685 1496.56
rfemur -25.7739 -30.5858 16.4088
rtibia 82.5707
rfoot -30.3919 -15.3948
rtoes 28.6818
lfemur -65.2209 36.8185 -8.43776
ltibia 77.8513
lfoot 0.963634 15.6325
ltoes 23.9791
4718
root -1.09651 13.6121 -31.941 -709.453 -46.5293 -372.522
lowerback 16.7898 5.63579 1.99646
upperback -3.25928 8.16471 1.43414
thorax -12.9919 3.71305 -1.77476
lowerneck -2.90995 7.96858 1.33117
upperneck 5.83326 10.4453 2.24366
head 2.27675 5.28808 0.779498
rclavicle -3.95581e-014 -2.18663e-014
rhumerus -56.6595 46.804 -110.212
rradius 111.817
rwrist -82.5943
rhand 10.6821 -396.788
rfingers 7.12502
rthumb 35.773 1736.84
lclavicle -3.95581e-014 -2.18663e-014
lhumerus -172.224 173.82 -92.6137
lradius 95.8367
lwrist -20.4245
lhand -40.6152 747.092
lfingers 7.12502
lthumb -13.5608 1496.63
rfemur -25.9662 -30.6907 16.3957
rtibia 82.8327
rfoot -30.58 -15.3183
rtoes 28.7064
lfemur -65.3937 36.9255 -8.52287
ltibia 77.9589
lfoot 0.822058 15.6666
ltoes 23.8353
4719
root -1.10264 13.5961 -31.9492 -709.426 -46.571 -372.443
lowerback 16.7586 5.65839 1.91202
upperback -3.26286 8.17078 1.39076
thorax -12.9824 3.72093 -1.77468
lowerneck -2.96905 7.95176 1.36305
upperneck 5.87363 10.4168 2.2846
head 2.30046 5.27607 0.790684
rclavicle 3.95085e-015 3.57812e-015
rhumerus -56.5738 46.7949 -110.202
rradius 111.81
rwrist -82.5965
rhand 10.7586 -396.972
rfingers 7.12502
rthumb 35.8455 1736.67
lclavicle 3.95085e-015 3.57812e-015
lhumerus -172.142 173.854 -92.6662
lradius 95.8959
lwrist -20.1852
lhand -40.7213 747.064
lfingers 7.12502
lthumb -13.663 1496.6
rfemur -26.1947 -30.7473 16.4251
rtibia 83.0865
rfoot -30.6738 -15.3347
rtoes 28.7765
lfemur -65.5914 37.0313 -8.63448
ltibia 78.0557
lfoot 0.740753 15.6738
ltoes 23.7441
4720
root -1.10868 13.5821 -31.957 -709.41 -46.6123 -372.339
lowerback 16.7214 5.68564 1.81187
upperback -3.28781 8.18258 1.36084
thorax -12.9985 3.73244 -1.75369
lowerneck -2.9261 7.93257 1.36143
upperneck 5.84943 10.3909 2.30973
head 2.28329 5.26353 0.794887
rclavicle -1.28465e-013 -6.36111e-015
rhumerus -56.6276 46.7798 -110.245
rradius 111.828
rwrist -82.6293
rhand 10.7018 -397.181
rfingers 7.12502
rthumb 35.7917 1736.45
lclavicle -1.28465e-013 -6.36111e-015
lhumerus -172.158 173.898 -92.7035
lradius 95.977
lwrist -19.8637
lhand -40.7526 747.21
lfingers 7.12502
lthumb -13.6932 1496.74
rfemur -26.4199 -30.8336 16.4291
rtibia 83.3291
rfoot -30.859 -15.2339
rtoes 28.9027
lfemur -65.7775 37.1256 -8.76094
ltibia 78.1539
lfoot 0.638119 15.6837
ltoes 23.6025
4721
root -1.11509 13.5662 -31.964 -709.362 -46.6664 -372.336
lowerback 16.7302 5.70471 1.759
upperback -3.28974 8.19667 1.35613
thorax -13.0125 3.74228 -1.73506
lowerneck -3.10647 7.94754 1.49964
upperneck 6.0195 10.4013 2.23397
head 2.38458 5.2711 0.765426
rclavicle 4.26145e-014 -2.06736e-014
rhumerus -56.656 46.7826 -110.261
rradius 111.877
rwrist -82.6803
rhand 10.7336 -397.507
rfingers 7.12502
rthumb 35.8218 1736.13
lclavicle 4.26145e-014 -2.06736e-014
lhumerus -172.139 173.916 -92.7204
lradius 96.0752
lwrist -19.5872
lhand -40.8861 747.32
lfingers 7.12502
lthumb -13.8219 1496.84
rfemur -26.5881 -30.9208 16.4811
rtibia 83.5616
rfoot -30.9287 -15.2839
rtoes 28.8522
lfemur -65.9312 37.2714 -8.78303
ltibia 78.2694
lfoot 0.503465 15.6774
ltoes 23.4413
4722
root -1.11974 13.5513 -31.9707 -709.308 -46.6975 -372.357
lowerback 16.7314 5.71877 1.75692
upperback -3.27911 8.21395 1.35187
thorax -13.0001 3.75071 -1.74264
lowerneck -2.958 7.89564 1.39948
upperneck 5.82485 10.3408 2.28179
head 2.28489 5.23852 0.779724
rclavicle 6.43565e-014 -9.54166e-015
rhumerus -56.6467 46.7631 -110.259
rradius 111.873
rwrist -82.6525
rhand 10.7987 -397.363
rfingers 7.12502
rthumb 35.8835 1736.29
lclavicle 6.43565e-014 -9.54166e-015
lhumerus -172.098 173.888 -92.7042
lradius 96.1126
lwrist -19.3627
lhand -40.7876 747.136
lfingers 7.12502
lthumb -13.7269 1496.66
rfemur -26.7395 -30.9774 16.5538
rtibia 83.7816
rfoot -31.0662 -15.2493
rtoes 28.7603
lfemur -66.0731 37.3737 -8.77283
ltibia 78.3943
lfoot 0.405183 15.6469
ltoes 23.2954
4723
root -1.12427 13.5336 -31.9771 -709.225 -46.7053 -372.403
lowerback 16.7473 5.72666 1.75971
upperback -3.28998 8.22755 1.36252
thorax -13.0232 3.75636 -1.73872
lowerneck -2.92509 7.88291 1.36405
upperneck 5.76837 10.3247 2.32568
head 2.25587 5.23051 0.79464
rclavicle 2.29348e-014 -6.75868e-015
rhumerus -56.7062 46.7261 -110.278
rradius 111.894
rwrist -82.6623
rhand 10.7893 -397.144
rfingers 7.12502
rthumb 35.8746 1736.51
lclavicle 2.29348e-014 -6.75868e-015
lhumerus -172.073 173.87 -92.6717
lradius 96.1482
lwrist -19.3392
lhand -40.6211 747.08
lfingers 7.12502
lthumb -13.5665 1496.62
rfemur -26.9262 -30.9436 16.6873
rtibia 84.0078
rfoot -31.1287 -15.3516
rtoes 28.8299
lfemur -66.2701 37.458 -8.76401
ltibia 78.5385
lfoot 0.330961 15.6081
ltoes 23.1668
4724
root -1.12864 13.5171 -31.984 -709.182 -46.7181 -372.42
lowerback 16.7859 5.72914 1.75444
upperback -3.29192 8.23055 1.35948
thorax -13.0486 3.75677 -1.74441
lowerneck -2.8918 7.8679 1.37622
upperneck 5.71207 10.3063 2.31342
head 2.23269 5.22076 0.784844
rclavicle 6.55989e-014 -2.90226e-014
rhumerus -56.7949 46.6985 -110.273
rradius 111.986
rwrist -82.6712
rhand 10.8265 -397.391
rfingers 7.12502
rthumb 35.9098 1736.27
lclavicle 6.55989e-014 -2.90226e-014
lhumerus -172.043 173.849 -92.6767
lradius 96.1381
lwrist -19.4582
lhand -40.6035 746.985
lfingers 7.12502
lthumb -13.5495 1496.52
rfemur -27.0708 -30.9835 16.744
rtibia 84.2385
rfoot -31.3667 -15.109
rtoes 29.4399
lfemur -66.4285 37.5363 -8.75542
ltibia 78.6813
lfoot 0.237094 15.5555
ltoes 23.0368
